Coordinates
version=1
nRows=9
nColumns=38
inDegrees=yes

Units are S.I. units (second, meters, Newtons, ...)
Angles are in degrees.

endheader
time	pelvis_tilt	pelvis_list	pelvis_rotation	pelvis_tx	pelvis_ty	pelvis_tz	hip_flexion_r	hip_adduction_r	hip_rotation_r	knee_angle_r	ankle_angle_r	subtalar_angle_r	mtp_angle_r	hip_flexion_l	hip_adduction_l	hip_rotation_l	knee_angle_l	ankle_angle_l	subtalar_angle_l	mtp_angle_l	lumbar_extension	lumbar_bending	lumbar_rotation	arm_flex_r	arm_add_r	arm_rot_r	elbow_flex_r	pro_sup_r	wrist_flex_r	wrist_dev_r	arm_flex_l	arm_add_l	arm_rot_l	elbow_flex_l	pro_sup_l	wrist_flex_l	wrist_dev_l
      2.00000000	     -0.27432947	      1.97226272	     -1.02095988	     -0.82579985	      0.91601867	      0.22098405	     28.12154659	     -0.99956113	     -3.58081724	    -48.47214041	     -1.42309904	    -13.72020806	     18.22191803	      0.18483334	      6.54997841	      5.34225422	    -15.83131140	     11.03862206	     -0.70930239	      4.15128022	     -5.27638158	     -1.57867639	     -5.95194781	     -6.69180278	    -17.36889227	      9.19292387	     23.45136269	     86.51662706	      0.00000000	      0.00000000	     -4.02581349	    -18.02502614	     11.10973144	     30.57500965	     85.94366927	      0.00000000	      0.00000000
      2.01000000	      0.18237576	      1.84597769	     -0.86561017	     -0.81337736	      0.91570903	      0.22145360	     28.01061737	     -0.94365438	     -3.81216888	    -45.28866496	     -1.34149211	    -13.99014842	     17.94196119	     -1.64625715	      6.32992349	      5.45515755	    -14.97716088	     11.44677532	     -0.44454458	      4.27923992	     -5.81892728	     -1.41375830	     -6.36242632	     -6.70250701	    -17.17184958	      8.92792224	     22.87476190	     86.51662706	      0.00000000	      0.00000000	     -3.67026526	    -18.34272748	     11.19123553	     31.20365526	     85.94366927	      0.00000000	      0.00000000
      2.02000000	      0.53766876	      1.80528225	     -0.72398765	     -0.80097138	      0.91534108	      0.22185767	     27.95804699	     -0.97870902	     -4.05103541	    -42.02320148	     -1.21552157	    -13.63047591	     17.64286066	     -3.34245673	      6.20477728	      5.58596397	    -14.15070266	     11.77858493	     -0.23414963	      4.33935932	     -6.27589123	     -1.32888541	     -6.72073101	     -6.74584200	    -17.00624575	      8.76125197	     22.34512894	     86.51662706	      0.00000000	      0.00000000	     -3.27921302	    -18.62152819	     11.18973075	     31.75677591	     85.94366927	      0.00000000	      0.00000000
      2.03000000	      0.80268821	      1.82216473	     -0.59190387	     -0.78853529	      0.91484613	      0.22228352	     27.94410092	     -1.06996195	     -4.30747609	    -38.68898686	     -1.04751431	    -12.71354202	     17.33795751	     -4.91848679	      6.13994415	      5.72853462	    -13.36322482	     12.05744602	     -0.06579740	      4.34585513	     -6.64780183	     -1.30160409	     -7.03579283	     -6.81654115	    -16.86417843	      8.67246642	     21.86055706	     86.51662706	      0.00000000	      0.00000000	     -2.86532301	    -18.87003544	     11.13590113	     32.23810744	     85.94366927	      0.00000000	      0.00000000
      2.04000000	      0.99018983	      1.86231623	     -0.46476758	     -0.77604122	      0.91404203	      0.22280703	     27.94922590	     -1.17927629	     -4.59827904	    -35.31050423	     -0.84016742	    -11.33288057	     17.04452325	     -6.38840721	      6.09548126	      5.87584044	    -12.63067652	     12.30918043	      0.07720085	      4.31985353	     -6.93607119	     -1.30432053	     -7.31836838	     -6.90782858	    -16.73731298	      8.63741383	     21.41750600	     86.51662706	      0.00000000	      0.00000000	     -2.44299681	    -19.09682888	     11.06492674	     32.65175274	     85.94366927	      0.00000000	      0.00000000
      2.05000000	      1.11316576	      1.89615866	     -0.33904768	     -0.76347025	      0.91276901	      0.22344374	     27.95887693	     -1.27666019	     -4.94472768	    -31.92561144	     -0.59609109	     -9.59028739	     16.78020404	     -7.76209139	      6.03657851	      6.02183529	    -11.97191608	     12.55405248	      0.21316629	      4.28870485	     -7.14510482	     -1.31094686	     -7.57903336	     -7.01212785	    -16.61908177	      8.63355671	     21.01093255	     86.51662706	      0.00000000	      0.00000000	     -2.02431482	    -19.30759837	     11.00786016	     33.00122297	     85.94366927	      0.00000000	      0.00000000
      2.06000000	      1.18496641	      1.90726648	     -0.21230581	     -0.75079425	      0.91111400	      0.22415403	     27.96439052	     -1.34553386	     -5.36819216	    -28.58671157	     -0.31776858	     -7.58873183	     16.55997568	     -9.04445611	      5.94054372	      6.16256560	    -11.40752044	     12.80174519	      0.35955345	      4.28591824	     -7.28398391	     -1.30189683	     -7.82730695	     -7.12138352	    -16.50537171	      8.64319277	     20.63486127	     86.51662706	      0.00000000	      0.00000000	     -1.61678500	    -19.50413185	     10.98641745	     33.28921207	     85.94366927	      0.00000000	      0.00000000
      2.07000000	      1.21960772	      1.89290647	     -0.08149488	     -0.73799372	      0.90935262	      0.22489823	     27.96256792	     -1.38140281	     -5.88445031	    -25.36025459	     -0.00785978	     -5.42962123	     16.39385847	    -10.23574015	      5.79983823	      6.29621233	    -10.95893203	     13.04969389	      0.53101895	      4.35139572	     -7.36646311	     -1.26654338	     -8.07153883	     -7.22734906	    -16.39407581	      8.65487140	     20.28324589	     86.51662706	      0.00000000	      0.00000000	     -1.22331036	    -19.68491328	     11.01081904	     33.51800366	     85.94366927	      0.00000000	      0.00000000
      2.08000000	      1.23128174	      1.85815391	      0.05882598	     -0.72507958	      0.90765275	      0.22567340	     27.95539948	     -1.38725622	     -6.49789596	    -22.32383216	      0.33034420	     -3.21289136	     16.28551223	    -11.33278976	      5.62010860	      6.42195920	    -10.64751057	     13.28453194	      0.73839938	      4.53158492	     -7.40905314	     -1.20287127	     -8.31914451	     -7.32216433	    -16.28418737	      8.66340172	     19.95089316	     86.51662706	      0.00000000	      0.00000000	     -0.84410674	    -19.84663632	     11.08014158	     33.69027225	     85.94366927	      0.00000000	      0.00000000
